REM DIRINDEX 1\2\6,1\2\7,1\2\8,1\2\9,1\3\10,1\3\11,1\4\12,1\4\13,1\4\14,1\5\15,1\5\16,1\5\17
REM DIRNAME folder01,folder02,folder03,folder04,folder05,folder06,folder07,folder08,folder09,folder10,folder11,folder12,folder13,folder14,folder15,folder16,folder17
TITLE ""
FILE "1900_3_037 sec07_0601_0614.mp3" MP3
  TRACK 01 AUDIO
    TITLE "0:"
    INDEX 01 00:00:00
  TRACK 02 AUDIO
    TITLE "15:cjc020_7173"
    INDEX 01 00:00:17
  TRACK 03 AUDIO
    TITLE "0:"
    INDEX 01 00:01:56
  TRACK 04 AUDIO
    TITLE "17:cjc020_7174"
    INDEX 01 00:02:59
  TRACK 05 AUDIO
    TITLE "0:"
    INDEX 01 00:04:09
  TRACK 06 AUDIO
    TITLE "16:cjc020_7175"
    INDEX 01 00:04:15
  TRACK 07 AUDIO
    TITLE "0:"
    INDEX 01 00:05:28
  TRACK 08 AUDIO
    TITLE "17:cjc020_7176"
    INDEX 01 00:06:08
  TRACK 09 AUDIO
    TITLE "0:"
    INDEX 01 00:07:35
  TRACK 10 AUDIO
    TITLE "16:cjc020_7177"
    INDEX 01 00:07:41
  TRACK 11 AUDIO
    TITLE "0:"
    INDEX 01 00:08:50
  TRACK 12 AUDIO
    TITLE "17:cjc020_7178"
    INDEX 01 00:09:38
  TRACK 13 AUDIO
    TITLE "0:"
    INDEX 01 00:10:49
  TRACK 14 AUDIO
    TITLE "16:cjc020_7179"
    INDEX 01 00:10:53
  TRACK 15 AUDIO
    TITLE "0:"
    INDEX 01 00:11:54
  TRACK 16 AUDIO
    TITLE "17:cjc020_7180"
    INDEX 01 00:12:38
  TRACK 17 AUDIO
    TITLE "0:"
    INDEX 01 00:13:65
  TRACK 18 AUDIO
    TITLE "16:cjc020_7181"
    INDEX 01 00:13:73
  TRACK 19 AUDIO
    TITLE "0:"
    INDEX 01 00:15:05
  TRACK 20 AUDIO
    TITLE "17:cjc020_7182"
    INDEX 01 00:15:66
  TRACK 21 AUDIO
    TITLE "0:"
    INDEX 01 00:17:08
  TRACK 22 AUDIO
    TITLE "16:cjc020_7183"
    INDEX 01 00:17:14
  TRACK 23 AUDIO
    TITLE "0:"
    INDEX 01 00:18:23
  TRACK 24 AUDIO
    TITLE "17:cjc020_7184"
    INDEX 01 00:19:07
  TRACK 25 AUDIO
    TITLE "0:"
    INDEX 01 00:20:45
  TRACK 26 AUDIO
    TITLE "16:cjc020_7185"
    INDEX 01 00:20:55
  TRACK 27 AUDIO
    TITLE "0:"
    INDEX 01 00:21:60
  TRACK 28 AUDIO
    TITLE "17:cjc020_7186"
    INDEX 01 00:22:42
  TRACK 29 AUDIO
    TITLE "0:"
    INDEX 01 00:24:53
  TRACK 30 AUDIO
    TITLE "16:cjc020_7187"
    INDEX 01 00:24:59
  TRACK 31 AUDIO
    TITLE "0:"
    INDEX 01 00:25:74
  TRACK 32 AUDIO
    TITLE "17:cjc020_7188"
    INDEX 01 00:26:56
  TRACK 33 AUDIO
    TITLE "0:"
    INDEX 01 00:27:71
  TRACK 34 AUDIO
    TITLE "16:cjc020_7189"
    INDEX 01 00:28:02
  TRACK 35 AUDIO
    TITLE "0:"
    INDEX 01 00:29:17
  TRACK 36 AUDIO
    TITLE "17:cjc020_7190"
    INDEX 01 00:29:74
  TRACK 37 AUDIO
    TITLE "0:"
    INDEX 01 00:31:00
  TRACK 38 AUDIO
    TITLE "16:cjc020_7191"
    INDEX 01 00:31:06
  TRACK 39 AUDIO
    TITLE "0:"
    INDEX 01 00:32:09
  TRACK 40 AUDIO
    TITLE "17:cjc020_7192"
    INDEX 01 00:32:66
  TRACK 41 AUDIO
    TITLE "0:"
    INDEX 01 00:33:56
  TRACK 42 AUDIO
    TITLE "16:cjc020_7193"
    INDEX 01 00:33:62
  TRACK 43 AUDIO
    TITLE "0:"
    INDEX 01 00:34:71
  TRACK 44 AUDIO
    TITLE "17:cjc020_7194"
    INDEX 01 00:35:49
  TRACK 45 AUDIO
    TITLE "0:"
    INDEX 01 00:36:74
  TRACK 46 AUDIO
    TITLE "16:cjc020_7195"
    INDEX 01 00:37:03
  TRACK 47 AUDIO
    TITLE "0:"
    INDEX 01 00:37:71
  TRACK 48 AUDIO
    TITLE "17:cjc020_7196"
    INDEX 01 00:38:55
  TRACK 49 AUDIO
    TITLE "0:"
    INDEX 01 00:40:05
  TRACK 50 AUDIO
    TITLE "16:cjc020_7197"
    INDEX 01 00:40:11
  TRACK 51 AUDIO
    TITLE "0:"
    INDEX 01 00:41:26
  TRACK 52 AUDIO
    TITLE "17:cjc020_7198"
    INDEX 01 00:42:08
  TRACK 53 AUDIO
    TITLE "0:"
    INDEX 01 00:43:17
  TRACK 54 AUDIO
    TITLE "16:cjc020_7199"
    INDEX 01 00:43:21
  TRACK 55 AUDIO
    TITLE "0:"
    INDEX 01 00:44:22
  TRACK 56 AUDIO
    TITLE "17:cjc020_7200"
    INDEX 01 00:45:04
  TRACK 57 AUDIO
    TITLE "0:"
    INDEX 01 00:46:27
  TRACK 58 AUDIO
    TITLE "16:cjc020_7201"
    INDEX 01 00:46:33
  TRACK 59 AUDIO
    TITLE "0:"
    INDEX 01 00:47:50
